<?xml version="1.0" encoding="UTF-8"?> <svg xmlns="http://www.w3.org/2000/svg" width="221" height="187" viewBox="0 0 221 187" fill="none"><g filter="url(#filter0_di_847_2)"><path d="M100.626 149.826L109.34 82.442C109.77 79.1103 109.986 77.4444 110.5 77.4444C111.014 77.4444 111.23 79.1103 111.661 82.442L120.374 149.826C120.722 152.518 120.896 153.864 121.131 155.025C124.098 169.665 136.474 180.533 151.391 181.596C152.574 181.68 153.933 181.68 156.65 181.68C162.546 181.68 165.494 181.68 166.496 181.619C180.661 180.766 189.355 174.692 195.016 161.695C195.416 160.776 196.238 158.529 197.881 154.035L197.881 154.034C201.183 145.002 204.962 130.555 209.144 103.494C214.37 69.6704 217.858 43.5866 220.03 26.0657C221.76 12.1011 210.821 0 196.733 0C184.904 0 174.862 8.64232 173.195 20.3393C171.139 34.7739 168.453 54.1656 166.661 69.1373C163.903 92.174 160.648 122.424 159.708 131.224C159.556 132.648 158.353 133.725 156.919 133.725C155.463 133.725 154.251 132.631 154.123 131.183C153.426 123.271 151.185 98.3809 148.825 77.7618C147.59 66.9771 145.723 53.212 144.004 41.0783C141.649 24.4515 127.313 12.2137 110.5 12.2875C93.6876 12.2137 79.3515 24.4515 76.9959 41.0783C75.2768 53.212 73.4097 66.9771 72.1754 77.7618C69.8154 98.3809 67.5745 123.271 66.8769 131.183C66.7492 132.631 65.5368 133.725 64.0814 133.725C62.6471 133.725 61.4444 132.648 61.2922 131.224C60.3519 122.424 57.0968 92.174 54.3394 69.1373C52.5473 54.1656 49.8613 34.7739 47.8047 20.3393C46.1382 8.64232 36.0962 0 24.2671 0C10.179 0 -0.760171 12.1011 0.9705 26.0657C3.14192 43.5866 6.63021 69.6704 11.8566 103.494C16.0382 130.555 19.8168 145.002 23.1189 154.034L23.1193 154.035C24.7622 158.529 25.5837 160.776 25.984 161.695C31.6455 174.692 40.3394 180.766 54.5046 181.619C55.5063 181.68 58.4542 181.68 64.3501 181.68C67.0674 181.68 68.4261 181.68 69.609 181.596C84.526 180.533 96.9025 169.665 99.8686 155.025C100.104 153.864 100.278 152.518 100.626 149.826Z" fill="url(#paint0_linear_847_2)"></path></g><g filter="url(#filter1_d_847_2)"><circle cx="196.659" cy="23.5512" r="15.0668" fill="white"></circle></g><defs><filter id="filter0_di_847_2" x="0.790039" y="-1.17024" width="219.42" height="188.116" filterUnits="userSpaceOnUse" color-interpolation-filters="sRGB"><feFlood flood-opacity="0" result="BackgroundImageFix"></feFlood><feColorMatrix in="SourceAlpha" type="matrix" values="0 0 0 0 0 0 0 0 0 0 0 0 0 0 0 0 0 0 127 0" result="hardAlpha"></feColorMatrix><feOffset dy="5.26608"></feOffset><feComposite in2="hardAlpha" operator="out"></feComposite><feColorMatrix type="matrix" values="0 0 0 0 0.0312302 0 0 0 0 0.345146 0 0 0 0 0.597946 0 0 0 1 0"></feColorMatrix><feBlend mode="normal" in2="BackgroundImageFix" result="effect1_dropShadow_847_2"></feBlend><feBlend mode="normal" in="SourceGraphic" in2="effect1_dropShadow_847_2" result="shape"></feBlend><feColorMatrix in="SourceAlpha" type="matrix" values="0 0 0 0 0 0 0 0 0 0 0 0 0 0 0 0 0 0 127 0" result="hardAlpha"></feColorMatrix><feOffset dy="-1.17024"></feOffset><feGaussianBlur stdDeviation="1.56032"></feGaussianBlur><feComposite in2="hardAlpha" operator="arithmetic" k2="-1" k3="1"></feComposite><feColorMatrix type="matrix" values="0 0 0 0 0.337544 0 0 0 0 0.704493 0 0 0 0 1 0 0 0 1 0"></feColorMatrix><feBlend mode="normal" in2="shape" result="effect2_innerShadow_847_2"></feBlend></filter><filter id="filter1_d_847_2" x="181.592" y="8.48438" width="30.1338" height="31.8891" filterUnits="userSpaceOnUse" color-interpolation-filters="sRGB"><feFlood flood-opacity="0" result="BackgroundImageFix"></feFlood><feColorMatrix in="SourceAlpha" type="matrix" values="0 0 0 0 0 0 0 0 0 0 0 0 0 0 0 0 0 0 127 0" result="hardAlpha"></feColorMatrix><feOffset dy="1.75536"></feOffset><feComposite in2="hardAlpha" operator="out"></feComposite><feColorMatrix type="matrix" values="0 0 0 0 0.0312302 0 0 0 0 0.345146 0 0 0 0 0.597946 0 0 0 1 0"></feColorMatrix><feBlend mode="normal" in2="BackgroundImageFix" result="effect1_dropShadow_847_2"></feBlend><feBlend mode="normal" in="SourceGraphic" in2="effect1_dropShadow_847_2" result="shape"></feBlend></filter><linearGradient id="paint0_linear_847_2" x1="110.5" y1="0" x2="110.5" y2="181.68" gradientUnits="userSpaceOnUse"><stop offset="0.122584" stop-color="#54B3FF"></stop><stop offset="0.533058" stop-color="#2293EE"></stop></linearGradient></defs></svg> 